<svg xmlns="http://www.w3.org/2000/svg" viewBox="0 0 200 240" fill="none">
  <defs>
    <linearGradient id="bodyGrad2" x1="100" y1="40" x2="100" y2="200" gradientUnits="userSpaceOnUse">
      <stop offset="0" stop-color="#05c4b8"/>
      <stop offset="1" stop-color="#026370"/>
    </linearGradient>
  </defs>
  <path d="M93 44 Q85 15 68 12 Q82 20 90 40" fill="#05c4b8"/>
  <path d="M100 40 Q108 8 128 8 Q112 16 105 38" fill="#05c4b8"/>
  <ellipse cx="100" cy="112" rx="74" ry="82" fill="url(#bodyGrad2)"/>
  <ellipse cx="100" cy="108" rx="60" ry="68" fill="#05c4b8" opacity="0.25"/>
  <rect x="78" y="184" width="44" height="10" rx="4" fill="#026370"/>
  <rect x="82" y="196" width="36" height="8" rx="3" fill="#083d44"/>
  <rect x="86" y="206" width="28" height="6" rx="3" fill="#083d44"/>
  <circle cx="70" cy="110" r="32" stroke="white" stroke-width="6" fill="none"/>
  <circle cx="130" cy="110" r="32" stroke="white" stroke-width="6" fill="none"/>
  <path d="M102 102 Q100 94 98 102" stroke="white" stroke-width="5" fill="none"/>
  <path d="M38 104 Q24 100 16 104" stroke="white" stroke-width="5" stroke-linecap="round" fill="none"/>
  <path d="M162 104 Q176 100 184 104" stroke="white" stroke-width="5" stroke-linecap="round" fill="none"/>
  <ellipse cx="70" cy="112" rx="11" ry="12" fill="#083d44"/>
  <circle cx="66" cy="108" r="4" fill="white"/>
  <ellipse cx="130" cy="112" rx="11" ry="12" fill="#083d44"/>
  <circle cx="126" cy="108" r="4" fill="white"/>
  <path d="M86 142 Q100 154 114 142" stroke="#083d44" stroke-width="3.5" stroke-linecap="round" fill="none"/>
</svg>
